<?xml version="1.0" encoding="UTF-8"?><svg xmlns="http://www.w3.org/2000/svg" xmlns:xlink="http://www.w3.org/1999/xlink" fill-opacity="1" color-rendering="auto" color-interpolation="auto" text-rendering="auto" stroke="black" stroke-linecap="square" width="1152" stroke-miterlimit="10" shape-rendering="auto" stroke-opacity="1" fill="black" stroke-dasharray="none" font-weight="normal" stroke-width="1" height="762" font-family="'Dialog'" font-style="normal" stroke-linejoin="miter" font-size="12px" stroke-dashoffset="0" image-rendering="auto">
  <!--Generated by ySVG 2.5-->
  <defs id="genericDefs"/>
  <g>
    <defs id="defs1">
      <clipPath clipPathUnits="userSpaceOnUse" id="clipPath1">
        <path d="M0 0 L1152 0 L1152 762 L0 762 L0 0 Z"/>
      </clipPath>
      <clipPath clipPathUnits="userSpaceOnUse" id="clipPath2">
        <path d="M93 30 L1245 30 L1245 792 L93 792 L93 30 Z"/>
      </clipPath>
      <clipPath clipPathUnits="userSpaceOnUse" id="clipPath3">
        <path d="M488 266 L729 266 L729 461 L488 461 L488 266 Z"/>
      </clipPath>
      <clipPath clipPathUnits="userSpaceOnUse" id="clipPath4">
        <path d="M509 126 L709 126 L709 215 L509 215 L509 126 Z"/>
      </clipPath>
      <clipPath clipPathUnits="userSpaceOnUse" id="clipPath5">
        <path d="M453 508 L544 508 L544 541 L453 541 L453 508 Z"/>
      </clipPath>
      <clipPath clipPathUnits="userSpaceOnUse" id="clipPath6">
        <path d="M107 107 L452 107 L452 232 L107 232 L107 107 Z"/>
      </clipPath>
      <clipPath clipPathUnits="userSpaceOnUse" id="clipPath7">
        <path d="M839 181 L1026 181 L1026 270 L839 270 L839 181 Z"/>
      </clipPath>
      <clipPath clipPathUnits="userSpaceOnUse" id="clipPath8">
        <path d="M0 0 L0 16 L167 16 L167 0 Z"/>
      </clipPath>
      <clipPath clipPathUnits="userSpaceOnUse" id="clipPath9">
        <path d="M987 91 L1098 91 L1098 141 L987 141 L987 91 Z"/>
      </clipPath>
      <clipPath clipPathUnits="userSpaceOnUse" id="clipPath10">
        <path d="M1037 181 L1224 181 L1224 270 L1037 270 L1037 181 Z"/>
      </clipPath>
      <clipPath clipPathUnits="userSpaceOnUse" id="clipPath11">
        <path d="M0 0 L0 16 L163 16 L163 0 Z"/>
      </clipPath>
      <clipPath clipPathUnits="userSpaceOnUse" id="clipPath12">
        <path d="M553 508 L664 508 L664 541 L553 541 L553 508 Z"/>
      </clipPath>
      <clipPath clipPathUnits="userSpaceOnUse" id="clipPath13">
        <path d="M674 508 L765 508 L765 541 L674 541 L674 508 Z"/>
      </clipPath>
      <clipPath clipPathUnits="userSpaceOnUse" id="clipPath14">
        <path d="M847 361 L1026 361 L1026 427 L847 427 L847 361 Z"/>
      </clipPath>
      <clipPath clipPathUnits="userSpaceOnUse" id="clipPath15">
        <path d="M837 683 L979 683 L979 772 L837 772 L837 683 Z"/>
      </clipPath>
      <clipPath clipPathUnits="userSpaceOnUse" id="clipPath16">
        <path d="M921 504 L1049 504 L1049 570 L921 570 L921 504 Z"/>
      </clipPath>
      <clipPath clipPathUnits="userSpaceOnUse" id="clipPath17">
        <path d="M863 603 L954 603 L954 653 L863 653 L863 603 Z"/>
      </clipPath>
      <clipPath clipPathUnits="userSpaceOnUse" id="clipPath18">
        <path d="M992 683 L1134 683 L1134 772 L992 772 L992 683 Z"/>
      </clipPath>
      <clipPath clipPathUnits="userSpaceOnUse" id="clipPath19">
        <path d="M674 631 L765 631 L765 664 L674 664 L674 631 Z"/>
      </clipPath>
      <clipPath clipPathUnits="userSpaceOnUse" id="clipPath20">
        <path d="M0 0 L0 18 L59 18 L59 0 Z"/>
      </clipPath>
      <script type="text/ecmascript"><![CDATA[      var SVGDocument = null;
      var SVGRoot = null;
      var TrueCoords = null;
      var lastElement = null;
      var initialized = null;
      var tipGroup;
      function Init(evt)
      {
         SVGDocument = evt.target.ownerDocument;
         SVGRoot = SVGDocument.documentElement;
         TrueCoords = SVGRoot.createSVGPoint();
         initialized = evt;
      };
      function GetTrueCoords(evt)
      {
         var newScale = SVGRoot.currentScale;
         var translation = SVGRoot.currentTranslate;
         TrueCoords.x = (evt.clientX - translation.x)/newScale;
         TrueCoords.y = (evt.clientY - translation.y)/newScale;
      };
      function HideTooltip( evt )
      {
         if(initialized == null) {
           Init(evt);
         }
         if(tipGroup != null) {
           tipGroup.setAttributeNS(null, 'visibility', 'hidden');
         }
      };
      function ShowTooltip( evt )
      {
         if(initialized == null) {
           Init(evt);
         }
         GetTrueCoords( evt );
         var tipScale = 1/SVGRoot.currentScale;
         var targetElement = evt.currentTarget;
         if ( lastElement != targetElement )
         {
            var targetId = targetElement.getAttributeNS(null, 'id');
            var tipId = 'tooltip.' + targetId;
            tipGroup = SVGDocument.getElementById(tipId);
            var xPos = TrueCoords.x + (10 * tipScale);
            var yPos = TrueCoords.y + (10 * tipScale);
            tipGroup.setAttributeNS(null, 'transform', 'translate(' + xPos + ',' + yPos + ') scale(' + tipScale + ')');
            tipGroup.setAttributeNS(null, 'visibility', 'visible');
         }
      };
]]></script>
    </defs>
    <g fill="white" text-rendering="geometricPrecision" shape-rendering="geometricPrecision" transform="translate(-93,-30)" stroke="white">
      <rect x="93" width="1152" height="762" y="30" clip-path="url(#clipPath2)" stroke="none"/>
    </g>
    <g id="y.node.0">
      <g>
        <g text-rendering="geometricPrecision" stroke-miterlimit="1.45" shape-rendering="geometricPrecision" font-family="sans-serif" transform="matrix(1,0,0,1,-93,-30)" stroke-linecap="butt">
          <text x="104.6676" xml:space="preserve" y="99.3978" stroke="none">Subject</text>
        </g>
      </g>
      <g text-rendering="geometricPrecision" stroke-miterlimit="1.45" stroke-dasharray="6,2" shape-rendering="geometricPrecision" transform="matrix(1,0,0,1,-93,-30)" stroke-linecap="butt">
        <rect x="98.6676" y="81.3333" fill="none" width="680.9397" rx="4" ry="4" height="475"/>
      </g>
    </g>
    <g id="y.node.1">
      <g>
        <g text-rendering="geometricPrecision" stroke-miterlimit="1.45" shape-rendering="geometricPrecision" font-family="sans-serif" transform="matrix(1,0,0,1,-93,-30)" stroke-linecap="butt">
          <text x="834" xml:space="preserve" y="492.3978" stroke="none">Information about change</text>
        </g>
      </g>
      <g text-rendering="geometricPrecision" stroke-miterlimit="1.45" stroke-dasharray="6,2" shape-rendering="geometricPrecision" transform="matrix(1,0,0,1,-93,-30)" stroke-linecap="butt">
        <rect x="828" y="474.3333" fill="none" width="315.0353" rx="4" ry="4" height="312"/>
      </g>
    </g>
    <g id="y.node.2">
      <g>
        <g text-rendering="geometricPrecision" stroke-miterlimit="1.45" shape-rendering="geometricPrecision" font-family="sans-serif" transform="matrix(1,0,0,1,-93,-30)" stroke-linecap="butt">
          <text x="834" xml:space="preserve" y="99.3978" stroke="none">Observer</text>
        </g>
      </g>
      <g text-rendering="geometricPrecision" stroke-miterlimit="1.45" stroke-dasharray="6,2" shape-rendering="geometricPrecision" transform="matrix(1,0,0,1,-93,-30)" stroke-linecap="butt">
        <rect x="828" y="81.3333" fill="none" width="411.0353" rx="4" ry="4" height="363"/>
      </g>
    </g>
    <g id="y.node.3">
      <g fill="rgb(255,204,0)" text-rendering="geometricPrecision" shape-rendering="geometricPrecision" transform="matrix(1,0,0,1,-93,-30)" stroke="rgb(255,204,0)">
        <rect x="489" width="239" height="193" y="267" stroke="none"/>
      </g>
      <g fill="yellow" text-rendering="geometricPrecision" shape-rendering="geometricPrecision" transform="matrix(1,0,0,1,-93,-30)" stroke="yellow">
        <rect x="488" width="1" height="195" y="266" stroke="none"/>
        <rect x="489" width="239" height="1" y="266" stroke="none"/>
        <rect fill="rgb(178,142,0)" x="489" width="240" height="1" y="460" stroke="none"/>
        <rect fill="rgb(178,142,0)" x="728" width="1" height="194" y="266" stroke="none"/>
      </g>
      <g text-rendering="geometricPrecision" stroke-miterlimit="1.45" shape-rendering="geometricPrecision" font-family="sans-serif" transform="matrix(1,0,0,1,-93,-30)" stroke-linecap="butt">
        <text x="573.6416" xml:space="preserve" y="283.7175" clip-path="url(#clipPath3)" stroke="none">&lt;&lt;abstract&gt;&gt;</text>
      </g>
      <g>
        <g stroke-linecap="butt" font-size="13px" transform="matrix(1,0,0,1,-93,-30)" text-rendering="geometricPrecision" font-family="sans-serif" shape-rendering="geometricPrecision" font-style="italic" font-weight="bold" stroke-miterlimit="1.45">
          <text x="559.8914" xml:space="preserve" y="308.424" clip-path="url(#clipPath3)" stroke="none">AbstractButton </text>
        </g>
      </g>
      <g text-rendering="geometricPrecision" shape-rendering="geometricPrecision" transform="matrix(1,0,0,1,-93,-30)">
        <line y2="316" fill="none" x1="489" clip-path="url(#clipPath3)" x2="728" y1="316"/>
        <line y2="326" fill="none" x1="489" clip-path="url(#clipPath3)" x2="728" y1="326"/>
        <text stroke-linecap="butt" x="493.5" y="343.3449" clip-path="url(#clipPath3)" font-family="sans-serif" stroke="none" stroke-miterlimit="1.45" xml:space="preserve">addActionListener(ActionListener)</text>
        <text stroke-linecap="butt" x="493.5" y="358.0461" clip-path="url(#clipPath3)" font-family="sans-serif" stroke="none" stroke-miterlimit="1.45" xml:space="preserve">addChangeListener(ChangeListener)</text>
        <text stroke-linecap="butt" x="493.5" y="372.7473" clip-path="url(#clipPath3)" font-family="sans-serif" stroke="none" stroke-miterlimit="1.45" xml:space="preserve">removeActionListener(ActionListener)</text>
        <text stroke-linecap="butt" x="493.5" y="387.4484" clip-path="url(#clipPath3)" font-family="sans-serif" stroke="none" stroke-miterlimit="1.45" xml:space="preserve">removeChangeListener(ChangeListener)</text>
        <text stroke-linecap="butt" x="493.5" y="402.1496" clip-path="url(#clipPath3)" font-family="sans-serif" stroke="none" stroke-miterlimit="1.45" xml:space="preserve">fireActionPerformed(ActionEvent)</text>
        <text stroke-linecap="butt" x="493.5" y="416.8508" clip-path="url(#clipPath3)" font-family="sans-serif" stroke="none" stroke-miterlimit="1.45" xml:space="preserve">fireStateChanged()</text>
        <text stroke-linecap="butt" x="493.5" y="431.5519" clip-path="url(#clipPath3)" font-family="sans-serif" stroke="none" stroke-miterlimit="1.45" xml:space="preserve"> </text>
        <text stroke-linecap="butt" x="493.5" y="446.2531" clip-path="url(#clipPath3)" font-family="sans-serif" stroke="none" stroke-miterlimit="1.45" xml:space="preserve">getText(): String</text>
        <text stroke-linecap="butt" x="493.5" y="460.9543" clip-path="url(#clipPath3)" font-family="sans-serif" stroke="none" stroke-miterlimit="1.45" xml:space="preserve">setText(String)</text>
      </g>
    </g>
    <g id="y.node.4">
      <g fill="rgb(255,204,0)" text-rendering="geometricPrecision" shape-rendering="geometricPrecision" transform="matrix(1,0,0,1,-93,-30)" stroke="rgb(255,204,0)">
        <rect x="510" width="198" height="87" y="127" stroke="none"/>
        <rect fill="yellow" x="509" width="1" height="89" y="126" stroke="none"/>
        <rect fill="yellow" x="510" width="198" height="1" y="126" stroke="none"/>
        <rect fill="rgb(178,142,0)" x="510" width="199" height="1" y="214" stroke="none"/>
        <rect fill="rgb(178,142,0)" x="708" width="1" height="88" y="126" stroke="none"/>
      </g>
      <g text-rendering="geometricPrecision" stroke-miterlimit="1.45" shape-rendering="geometricPrecision" font-family="sans-serif" transform="matrix(1,0,0,1,-93,-30)" stroke-linecap="butt">
        <text x="573.6416" xml:space="preserve" y="143.3978" clip-path="url(#clipPath4)" stroke="none">&lt;&lt;abstract&gt;&gt;</text>
      </g>
      <g>
        <g stroke-linecap="butt" font-size="13px" transform="matrix(1,0,0,1,-93,-30)" text-rendering="geometricPrecision" font-family="sans-serif" shape-rendering="geometricPrecision" font-style="italic" font-weight="bold" stroke-miterlimit="1.45">
          <text x="569.2795" xml:space="preserve" y="168.1043" clip-path="url(#clipPath4)" stroke="none">JComponent</text>
        </g>
      </g>
    </g>
    <g id="y.node.5">
      <g fill="rgb(255,204,0)" text-rendering="geometricPrecision" shape-rendering="geometricPrecision" transform="matrix(1,0,0,1,-93,-30)" stroke="rgb(255,204,0)">
        <rect x="454" width="89" height="31" y="509" stroke="none"/>
        <rect fill="yellow" x="453" width="1" height="33" y="508" stroke="none"/>
        <rect fill="yellow" x="454" width="89" height="1" y="508" stroke="none"/>
        <rect fill="rgb(178,142,0)" x="454" width="90" height="1" y="540" stroke="none"/>
        <rect fill="rgb(178,142,0)" x="543" width="1" height="32" y="508" stroke="none"/>
      </g>
      <g>
        <g font-size="13px" stroke-linecap="butt" transform="matrix(1,0,0,1,-93,-30)" text-rendering="geometricPrecision" font-family="sans-serif" shape-rendering="geometricPrecision" font-weight="bold" stroke-miterlimit="1.45">
          <text x="473.9504" xml:space="preserve" y="526.4031" clip-path="url(#clipPath5)" stroke="none">JButton</text>
        </g>
      </g>
    </g>
    <g id="y.node.6">
      <g fill="rgb(255,204,0)" text-rendering="geometricPrecision" shape-rendering="geometricPrecision" transform="matrix(1,0,0,1,-93,-30)" stroke="rgb(255,204,0)">
        <rect x="108" width="343" height="123" y="108" stroke="none"/>
        <rect fill="yellow" x="107" width="1" height="125" y="107" stroke="none"/>
        <rect fill="yellow" x="108" width="343" height="1" y="107" stroke="none"/>
        <rect fill="rgb(178,142,0)" x="108" width="344" height="1" y="231" stroke="none"/>
        <rect fill="rgb(178,142,0)" x="451" width="1" height="124" y="107" stroke="none"/>
      </g>
      <g>
        <g font-size="13px" stroke-linecap="butt" transform="matrix(1,0,0,1,-93,-30)" text-rendering="geometricPrecision" font-family="sans-serif" shape-rendering="geometricPrecision" font-weight="bold" stroke-miterlimit="1.45">
          <text x="225.2201" xml:space="preserve" y="125.9032" clip-path="url(#clipPath6)" stroke="none">EventListenerList</text>
        </g>
      </g>
      <g text-rendering="geometricPrecision" shape-rendering="geometricPrecision" transform="matrix(1,0,0,1,-93,-30)">
        <line y2="133" fill="none" x1="108" clip-path="url(#clipPath6)" x2="451" y1="133"/>
        <text stroke-linecap="butt" x="112.2623" y="150.8241" clip-path="url(#clipPath6)" font-family="sans-serif" stroke="none" stroke-miterlimit="1.45" xml:space="preserve">listenerList: Object[]</text>
        <line y2="158" fill="none" x1="108" clip-path="url(#clipPath6)" x2="451" y1="158"/>
        <text stroke-linecap="butt" x="112.2623" y="175.5252" clip-path="url(#clipPath6)" font-family="sans-serif" stroke="none" stroke-miterlimit="1.45" xml:space="preserve">getListenerList(): Object[]</text>
        <text stroke-linecap="butt" x="112.2623" y="190.2264" clip-path="url(#clipPath6)" font-family="sans-serif" stroke="none" stroke-miterlimit="1.45" xml:space="preserve">getListeners(Class&lt;T&gt; t): &lt;T extends EventListener&gt; T[]</text>
        <text stroke-linecap="butt" x="112.2623" y="204.9276" clip-path="url(#clipPath6)" font-family="sans-serif" stroke="none" stroke-miterlimit="1.45" xml:space="preserve">add(Class&lt;T&gt; t, T l) &lt;T extends EventListener&gt;</text>
        <text stroke-linecap="butt" x="112.2623" y="219.6287" clip-path="url(#clipPath6)" font-family="sans-serif" stroke="none" stroke-miterlimit="1.45" xml:space="preserve">remove(Class&lt;T&gt; t, T l) &lt;T extends EventListener&gt;</text>
      </g>
    </g>
    <g id="y.node.7">
      <g fill="rgb(255,204,0)" text-rendering="geometricPrecision" shape-rendering="geometricPrecision" transform="matrix(1,0,0,1,-93,-30)" stroke="rgb(255,204,0)">
        <rect x="840" width="185" height="87" y="182" stroke="none"/>
        <rect fill="yellow" x="839" width="1" height="89" y="181" stroke="none"/>
        <rect fill="yellow" x="840" width="185" height="1" y="181" stroke="none"/>
        <rect fill="rgb(178,142,0)" x="840" width="186" height="1" y="269" stroke="none"/>
        <rect fill="rgb(178,142,0)" x="1025" width="1" height="88" y="181" stroke="none"/>
      </g>
      <g text-rendering="geometricPrecision" stroke-miterlimit="1.45" shape-rendering="geometricPrecision" font-family="sans-serif" transform="matrix(1,0,0,1,-93,-30)" stroke-linecap="butt">
        <text x="895.9717" xml:space="preserve" y="198.3943" clip-path="url(#clipPath7)" stroke="none">&lt;&lt;interface&gt;&gt;</text>
      </g>
      <g>
        <g stroke-linecap="butt" font-size="13px" transform="matrix(1,0,0,1,-93,-30)" text-rendering="geometricPrecision" font-family="sans-serif" shape-rendering="geometricPrecision" font-style="italic" font-weight="bold" stroke-miterlimit="1.45">
          <text x="885.6877" xml:space="preserve" y="223.1008" clip-path="url(#clipPath7)" stroke="none">ActionListener </text>
        </g>
      </g>
      <g text-rendering="geometricPrecision" shape-rendering="geometricPrecision" transform="matrix(1,0,0,1,-93,-30)">
        <line y2="230" fill="none" x1="840" clip-path="url(#clipPath7)" x2="1025" y1="230"/>
        <line y2="240" fill="none" x1="840" clip-path="url(#clipPath7)" x2="1025" y1="240"/>
      </g>
      <g stroke-linecap="butt" transform="matrix(1,0,0,1,-93,-30) translate(844,245)" text-rendering="geometricPrecision" font-family="sans-serif" shape-rendering="geometricPrecision" font-style="italic" stroke-miterlimit="1.45">
        <text x="0" xml:space="preserve" y="13" clip-path="url(#clipPath8)" stroke="none">actionPerformed(ActionEvent) </text>
      </g>
    </g>
    <g id="y.node.8">
      <g fill="rgb(255,204,0)" text-rendering="geometricPrecision" shape-rendering="geometricPrecision" transform="matrix(1,0,0,1,-93,-30)" stroke="rgb(255,204,0)">
        <rect x="988" width="109" height="48" y="92" stroke="none"/>
        <rect fill="yellow" x="987" width="1" height="50" y="91" stroke="none"/>
        <rect fill="yellow" x="988" width="109" height="1" y="91" stroke="none"/>
        <rect fill="rgb(178,142,0)" x="988" width="110" height="1" y="140" stroke="none"/>
        <rect fill="rgb(178,142,0)" x="1097" width="1" height="49" y="91" stroke="none"/>
      </g>
      <g text-rendering="geometricPrecision" stroke-miterlimit="1.45" shape-rendering="geometricPrecision" font-family="sans-serif" transform="matrix(1,0,0,1,-93,-30)" stroke-linecap="butt">
        <text x="1005.9717" xml:space="preserve" y="108.3943" clip-path="url(#clipPath9)" stroke="none">&lt;&lt;interface&gt;&gt;</text>
      </g>
      <g>
        <g stroke-linecap="butt" font-size="13px" transform="matrix(1,0,0,1,-93,-30)" text-rendering="geometricPrecision" font-family="sans-serif" shape-rendering="geometricPrecision" font-style="italic" font-weight="bold" stroke-miterlimit="1.45">
          <text x="998.2078" xml:space="preserve" y="133.1008" clip-path="url(#clipPath9)" stroke="none">EventListener </text>
        </g>
      </g>
    </g>
    <g id="y.node.9">
      <g fill="rgb(255,204,0)" text-rendering="geometricPrecision" shape-rendering="geometricPrecision" transform="matrix(1,0,0,1,-93,-30)" stroke="rgb(255,204,0)">
        <rect x="1038" width="185" height="87" y="182" stroke="none"/>
        <rect fill="yellow" x="1037" width="1" height="89" y="181" stroke="none"/>
        <rect fill="yellow" x="1038" width="185" height="1" y="181" stroke="none"/>
        <rect fill="rgb(178,142,0)" x="1038" width="186" height="1" y="269" stroke="none"/>
        <rect fill="rgb(178,142,0)" x="1223" width="1" height="88" y="181" stroke="none"/>
      </g>
      <g text-rendering="geometricPrecision" stroke-miterlimit="1.45" shape-rendering="geometricPrecision" font-family="sans-serif" transform="matrix(1,0,0,1,-93,-30)" stroke-linecap="butt">
        <text x="1093.507" xml:space="preserve" y="198.3943" clip-path="url(#clipPath10)" stroke="none">&lt;&lt;interface&gt;&gt;</text>
      </g>
      <g>
        <g stroke-linecap="butt" font-size="13px" transform="matrix(1,0,0,1,-93,-30)" text-rendering="geometricPrecision" font-family="sans-serif" shape-rendering="geometricPrecision" font-style="italic" font-weight="bold" stroke-miterlimit="1.45">
          <text x="1079.608" xml:space="preserve" y="223.1008" clip-path="url(#clipPath10)" stroke="none">ChangeListener </text>
        </g>
      </g>
      <g text-rendering="geometricPrecision" shape-rendering="geometricPrecision" transform="matrix(1,0,0,1,-93,-30)">
        <line y2="230" fill="none" x1="1038" clip-path="url(#clipPath10)" x2="1223" y1="230"/>
        <line y2="240" fill="none" x1="1038" clip-path="url(#clipPath10)" x2="1223" y1="240"/>
      </g>
      <g stroke-linecap="butt" transform="matrix(1,0,0,1,-93,-30) translate(1042,245)" text-rendering="geometricPrecision" font-family="sans-serif" shape-rendering="geometricPrecision" font-style="italic" stroke-miterlimit="1.45">
        <text x="0" xml:space="preserve" y="13" clip-path="url(#clipPath11)" stroke="none">stateChanged(ChangeEvent) </text>
      </g>
    </g>
    <g id="y.node.10">
      <g fill="rgb(255,204,0)" text-rendering="geometricPrecision" shape-rendering="geometricPrecision" transform="matrix(1,0,0,1,-93,-30)" stroke="rgb(255,204,0)">
        <rect x="554" width="109" height="31" y="509" stroke="none"/>
        <rect fill="yellow" x="553" width="1" height="33" y="508" stroke="none"/>
        <rect fill="yellow" x="554" width="109" height="1" y="508" stroke="none"/>
        <rect fill="rgb(178,142,0)" x="554" width="110" height="1" y="540" stroke="none"/>
        <rect fill="rgb(178,142,0)" x="663" width="1" height="32" y="508" stroke="none"/>
      </g>
      <g>
        <g font-size="13px" stroke-linecap="butt" transform="matrix(1,0,0,1,-93,-30)" text-rendering="geometricPrecision" font-family="sans-serif" shape-rendering="geometricPrecision" font-weight="bold" stroke-miterlimit="1.45">
          <text x="563.1477" xml:space="preserve" y="526.4031" clip-path="url(#clipPath12)" stroke="none">JToggleButton</text>
        </g>
      </g>
    </g>
    <g id="y.node.11">
      <g fill="rgb(255,204,0)" text-rendering="geometricPrecision" shape-rendering="geometricPrecision" transform="matrix(1,0,0,1,-93,-30)" stroke="rgb(255,204,0)">
        <rect x="675" width="89" height="31" y="509" stroke="none"/>
        <rect fill="yellow" x="674" width="1" height="33" y="508" stroke="none"/>
        <rect fill="yellow" x="675" width="89" height="1" y="508" stroke="none"/>
        <rect fill="rgb(178,142,0)" x="675" width="90" height="1" y="540" stroke="none"/>
        <rect fill="rgb(178,142,0)" x="764" width="1" height="32" y="508" stroke="none"/>
      </g>
      <g>
        <g font-size="13px" stroke-linecap="butt" transform="matrix(1,0,0,1,-93,-30)" text-rendering="geometricPrecision" font-family="sans-serif" shape-rendering="geometricPrecision" font-weight="bold" stroke-miterlimit="1.45">
          <text x="685.5496" xml:space="preserve" y="526.4031" clip-path="url(#clipPath13)" stroke="none">JMenuItem</text>
        </g>
      </g>
    </g>
    <g id="y.node.12">
      <g fill="silver" text-rendering="geometricPrecision" shape-rendering="geometricPrecision" transform="matrix(1,0,0,1,-93,-30)" stroke="silver">
        <rect x="848" width="177" height="64" y="362" stroke="none"/>
        <rect fill="white" x="847" width="1" height="66" y="361" stroke="none"/>
        <rect fill="white" x="848" width="177" height="1" y="361" stroke="none"/>
        <rect fill="rgb(134,134,134)" x="848" width="178" height="1" y="426" stroke="none"/>
        <rect fill="rgb(134,134,134)" x="1025" width="1" height="65" y="361" stroke="none"/>
      </g>
      <g>
        <g font-size="13px" stroke-linecap="butt" transform="matrix(1,0,0,1,-93,-30)" text-rendering="geometricPrecision" font-family="sans-serif" shape-rendering="geometricPrecision" font-weight="bold" stroke-miterlimit="1.45">
          <text x="873.425" xml:space="preserve" y="379.3996" clip-path="url(#clipPath14)" stroke="none">UsersActionListener</text>
        </g>
      </g>
      <g text-rendering="geometricPrecision" shape-rendering="geometricPrecision" transform="matrix(1,0,0,1,-93,-30)">
        <line y2="387" fill="none" x1="848" clip-path="url(#clipPath14)" x2="1025" y1="387"/>
        <line y2="397" fill="none" x1="848" clip-path="url(#clipPath14)" x2="1025" y1="397"/>
        <text stroke-linecap="butt" x="852.5" y="414.3205" clip-path="url(#clipPath14)" font-family="sans-serif" stroke="none" stroke-miterlimit="1.45" xml:space="preserve">actionPerformed(ActionEvent)</text>
      </g>
    </g>
    <g id="y.node.13">
      <g fill="rgb(255,204,0)" text-rendering="geometricPrecision" shape-rendering="geometricPrecision" transform="matrix(1,0,0,1,-93,-30)" stroke="rgb(255,204,0)">
        <rect x="838" width="140" height="87" y="684" stroke="none"/>
        <rect fill="yellow" x="837" width="1" height="89" y="683" stroke="none"/>
        <rect fill="yellow" x="838" width="140" height="1" y="683" stroke="none"/>
        <rect fill="rgb(178,142,0)" x="838" width="141" height="1" y="771" stroke="none"/>
        <rect fill="rgb(178,142,0)" x="978" width="1" height="88" y="683" stroke="none"/>
      </g>
      <g>
        <g font-size="13px" stroke-linecap="butt" transform="matrix(1,0,0,1,-93,-30)" text-rendering="geometricPrecision" font-family="sans-serif" shape-rendering="geometricPrecision" font-weight="bold" stroke-miterlimit="1.45">
          <text x="870.7217" xml:space="preserve" y="702.0627" clip-path="url(#clipPath15)" stroke="none">ActionEvent</text>
        </g>
      </g>
      <g text-rendering="geometricPrecision" shape-rendering="geometricPrecision" transform="matrix(1,0,0,1,-93,-30)">
        <line y2="709" fill="none" x1="838" clip-path="url(#clipPath15)" x2="978" y1="709"/>
        <line y2="719" fill="none" x1="838" clip-path="url(#clipPath15)" x2="978" y1="719"/>
        <text stroke-linecap="butt" x="842.6426" y="736.9836" clip-path="url(#clipPath15)" font-family="sans-serif" stroke="none" stroke-miterlimit="1.45" xml:space="preserve">getActionCommand()</text>
        <text stroke-linecap="butt" x="842.6426" y="751.6848" clip-path="url(#clipPath15)" font-family="sans-serif" stroke="none" stroke-miterlimit="1.45" xml:space="preserve">getWhen()</text>
        <text stroke-linecap="butt" x="842.6426" y="766.386" clip-path="url(#clipPath15)" font-family="sans-serif" stroke="none" stroke-miterlimit="1.45" xml:space="preserve">getModifiers()</text>
      </g>
    </g>
    <g id="y.node.14">
      <g fill="rgb(255,204,0)" text-rendering="geometricPrecision" shape-rendering="geometricPrecision" transform="matrix(1,0,0,1,-93,-30)" stroke="rgb(255,204,0)">
        <rect x="922" width="126" height="64" y="505" stroke="none"/>
        <rect fill="yellow" x="921" width="1" height="66" y="504" stroke="none"/>
        <rect fill="yellow" x="922" width="126" height="1" y="504" stroke="none"/>
        <rect fill="rgb(178,142,0)" x="922" width="127" height="1" y="569" stroke="none"/>
        <rect fill="rgb(178,142,0)" x="1048" width="1" height="65" y="504" stroke="none"/>
      </g>
      <g>
        <g font-size="13px" stroke-linecap="butt" transform="matrix(1,0,0,1,-93,-30)" text-rendering="geometricPrecision" font-family="sans-serif" shape-rendering="geometricPrecision" font-weight="bold" stroke-miterlimit="1.45">
          <text x="947.5904" xml:space="preserve" y="523.0627" clip-path="url(#clipPath16)" stroke="none">EventObject</text>
        </g>
      </g>
      <g text-rendering="geometricPrecision" shape-rendering="geometricPrecision" transform="matrix(1,0,0,1,-93,-30)">
        <line y2="530" fill="none" x1="922" clip-path="url(#clipPath16)" x2="1048" y1="530"/>
        <line y2="540" fill="none" x1="922" clip-path="url(#clipPath16)" x2="1048" y1="540"/>
        <text stroke-linecap="butt" x="926.5176" y="557.9836" clip-path="url(#clipPath16)" font-family="sans-serif" stroke="none" stroke-miterlimit="1.45" xml:space="preserve">getSource(): Object</text>
      </g>
    </g>
    <g id="y.node.15">
      <g fill="silver" text-rendering="geometricPrecision" shape-rendering="geometricPrecision" transform="matrix(1,0,0,1,-93,-30)" stroke="silver">
        <rect x="864" width="89" height="48" y="604" stroke="none"/>
        <rect fill="white" x="863" width="1" height="50" y="603" stroke="none"/>
        <rect fill="white" x="864" width="89" height="1" y="603" stroke="none"/>
        <rect fill="rgb(134,134,134)" x="864" width="90" height="1" y="652" stroke="none"/>
        <rect fill="rgb(134,134,134)" x="953" width="1" height="49" y="603" stroke="none"/>
      </g>
      <g text-rendering="geometricPrecision" stroke-miterlimit="1.45" shape-rendering="geometricPrecision" font-family="sans-serif" transform="matrix(1,0,0,1,-93,-30)" stroke-linecap="butt">
        <text x="873.2842" xml:space="preserve" y="621.0574" clip-path="url(#clipPath17)" stroke="none">&lt;&lt;abstract&gt;&gt;</text>
      </g>
      <g>
        <g stroke-linecap="butt" font-size="13px" transform="matrix(1,0,0,1,-93,-30)" text-rendering="geometricPrecision" font-family="sans-serif" shape-rendering="geometricPrecision" font-style="italic" font-weight="bold" stroke-miterlimit="1.45">
          <text x="876.1426" xml:space="preserve" y="645.7639" clip-path="url(#clipPath17)" stroke="none">AWTEvent</text>
        </g>
      </g>
    </g>
    <g id="y.node.16">
      <g fill="silver" text-rendering="geometricPrecision" shape-rendering="geometricPrecision" transform="matrix(1,0,0,1,-93,-30)" stroke="silver">
        <rect x="1038" width="185" height="64" y="362" stroke="none"/>
        <rect fill="white" x="1037" width="1" height="66" y="361" stroke="none"/>
        <rect fill="white" x="1038" width="185" height="1" y="361" stroke="none"/>
        <rect fill="rgb(134,134,134)" x="1038" width="186" height="1" y="426" stroke="none"/>
        <rect fill="rgb(134,134,134)" x="1223" width="1" height="65" y="361" stroke="none"/>
      </g>
      <g>
        <g font-size="13px" stroke-linecap="butt" transform="matrix(1,0,0,1,-93,-30)" text-rendering="geometricPrecision" font-family="sans-serif" shape-rendering="geometricPrecision" font-weight="bold" stroke-miterlimit="1.45">
          <text x="1063.3453" xml:space="preserve" y="379.3996" stroke="none">UsersChangeListener</text>
        </g>
      </g>
      <g text-rendering="geometricPrecision" shape-rendering="geometricPrecision" transform="matrix(1,0,0,1,-93,-30)">
        <line y2="387" fill="none" x1="1038" x2="1223" y1="387"/>
        <line y2="397" fill="none" x1="1038" x2="1223" y1="397"/>
        <text x="1042.0353" stroke-linecap="butt" y="414.3205" font-family="sans-serif" stroke="none" stroke-miterlimit="1.45" xml:space="preserve">stateChanged(ChangeEvent)</text>
      </g>
    </g>
    <g id="y.node.17">
      <g fill="rgb(255,204,0)" text-rendering="geometricPrecision" shape-rendering="geometricPrecision" transform="matrix(1,0,0,1,-93,-30)" stroke="rgb(255,204,0)">
        <rect x="993" width="140" height="87" y="684" stroke="none"/>
        <rect fill="yellow" x="992" width="1" height="89" y="683" stroke="none"/>
        <rect fill="yellow" x="993" width="140" height="1" y="683" stroke="none"/>
        <rect fill="rgb(178,142,0)" x="993" width="141" height="1" y="771" stroke="none"/>
        <rect fill="rgb(178,142,0)" x="1133" width="1" height="88" y="683" stroke="none"/>
      </g>
      <g>
        <g font-size="13px" stroke-linecap="butt" transform="matrix(1,0,0,1,-93,-30)" text-rendering="geometricPrecision" font-family="sans-serif" shape-rendering="geometricPrecision" font-weight="bold" stroke-miterlimit="1.45">
          <text x="1021.4995" xml:space="preserve" y="702.0627" clip-path="url(#clipPath18)" stroke="none">ChangeEvent</text>
        </g>
      </g>
    </g>
    <g id="y.node.18">
      <g stroke-linecap="butt" transform="matrix(1,0,0,1,-93,-30)" fill="gray" text-rendering="geometricPrecision" shape-rendering="geometricPrecision" stroke="gray" stroke-miterlimit="1.45">
        <rect fill="none" x="674" width="91" height="33" y="631.5062"/>
      </g>
      <g>
        <g stroke-linecap="butt" font-size="13px" transform="matrix(1,0,0,1,-93,-30)" fill="gray" text-rendering="geometricPrecision" font-family="sans-serif" shape-rendering="geometricPrecision" stroke="gray" font-weight="bold" stroke-miterlimit="1.45">
          <text x="701.4441" xml:space="preserve" y="649.576" clip-path="url(#clipPath19)" stroke="none">Client</text>
        </g>
      </g>
    </g>
    <g onmouseout="HideTooltip(evt)" id="y.node.19" onmousemove="ShowTooltip(evt)">
      <g fill="white" text-rendering="geometricPrecision" shape-rendering="geometricPrecision" transform="matrix(1,0,0,1,-93,-30)" stroke="white">
        <path d="M736.0536 35.9681 L856.5536 35.9681 L856.5536 50.9681 L871.5536 50.9681 L871.5536 60.8234 L736.0536 60.8234 Z" stroke="none"/>
        <path d="M856.5536 35.9681 L856.5536 50.9681 L871.5536 50.9681 Z" stroke="none" fill-rule="evenodd"/>
      </g>
      <g text-rendering="geometricPrecision" stroke-miterlimit="1.45" shape-rendering="geometricPrecision" transform="matrix(1,0,0,1,-93,-30)" stroke-linecap="butt">
        <path fill="none" d="M736.0536 35.9681 L856.5536 35.9681 L856.5536 50.9681 L871.5536 50.9681 L871.5536 60.8234 L736.0536 60.8234 Z"/>
        <path fill="none" d="M856.5536 35.9681 L856.5536 50.9681 L871.5536 50.9681 Z" fill-rule="evenodd"/>
      </g>
      <g>
        <g text-rendering="geometricPrecision" stroke-miterlimit="1.45" shape-rendering="geometricPrecision" font-family="sans-serif" transform="matrix(1,0,0,1,-93,-30)" stroke-linecap="butt">
          <text x="742.0536" xml:space="preserve" y="54.0325" stroke="none">Beziehung implizit</text>
        </g>
      </g>
    </g>
    <g id="y.node.20">
      <g fill="white" text-rendering="geometricPrecision" shape-rendering="geometricPrecision" transform="matrix(1,0,0,1,-93,-30)" stroke="white">
        <rect x="788.8037" width="30" height="15.2377" y="300.3298" stroke="none"/>
      </g>
      <g/>
    </g>
    <g id="y.edge.21">
      <g text-rendering="geometricPrecision" stroke-miterlimit="1.45" stroke-dasharray="6,2" shape-rendering="geometricPrecision" transform="matrix(1,0,0,1,-93,-30)" stroke-linecap="butt">
        <path fill="none" d="M779.5913 524.1631 L819.981 524.1631"/>
        <path d="M827.981 524.1631 L815.981 519.1631 L818.981 524.1631 L815.981 529.1631 Z" stroke="none"/>
      </g>
    </g>
    <g id="y.edge.14">
      <g text-rendering="geometricPrecision" stroke-miterlimit="1.45" stroke-dasharray="6,2" shape-rendering="geometricPrecision" transform="matrix(1,0,0,1,-93,-30)" stroke-linecap="butt">
        <path fill="none" d="M1033.5177 444.3062 L1033.5177 466.3452"/>
        <path d="M1033.5177 474.3452 L1038.5177 462.3452 L1033.5177 465.3452 L1028.5177 462.3452 Z" stroke="none"/>
      </g>
    </g>
    <g id="y.edge.0">
      <g text-rendering="geometricPrecision" stroke-miterlimit="1.45" shape-rendering="geometricPrecision" transform="matrix(1,0,0,1,-93,-30)" stroke-linecap="butt">
        <path fill="none" d="M609 266.6704 L609 230.3358"/>
        <path fill="white" d="M609 215.3358 L603 231.3358 L615 231.3358 Z" stroke="none"/>
        <path fill="none" d="M609 215.3358 L603 231.3358 L615 231.3358 Z"/>
      </g>
      <g/>
    </g>
    <g id="y.edge.1">
      <g text-rendering="geometricPrecision" stroke-miterlimit="1.45" shape-rendering="geometricPrecision" transform="matrix(1,0,0,1,-93,-30)" stroke-linecap="butt">
        <path fill="none" d="M498.5 508.306 L498.5 487.4735 L578.3002 487.4735 L578.3002 477.343"/>
        <path fill="white" d="M578.3002 462.343 L572.3002 478.343 L584.3002 478.343 Z" stroke="none"/>
        <path fill="none" d="M578.3002 462.343 L572.3002 478.343 L584.3002 478.343 Z"/>
      </g>
      <g/>
    </g>
    <g id="y.edge.8">
      <g text-rendering="geometricPrecision" stroke-miterlimit="1.45" shape-rendering="geometricPrecision" transform="matrix(1,0,0,1,-93,-30)" stroke-linecap="butt">
        <path fill="none" d="M452.2986 170.8333 L502.034 170.8333"/>
        <path fill="white" d="M509.034 170.8333 L502.034 175.8333 L495.034 170.8333 L502.034 165.8333 Z" stroke="none"/>
        <path fill="none" d="M509.034 170.8333 L502.034 175.8333 L495.034 170.8333 L502.034 165.8333 Z"/>
      </g>
      <g>
        <g text-rendering="geometricPrecision" stroke-miterlimit="1.45" shape-rendering="geometricPrecision" font-family="sans-serif" transform="matrix(1,0,0,1,-93,-30)" stroke-linecap="butt">
          <text x="464.3873" xml:space="preserve" y="164.1966" stroke="none">1</text>
        </g>
      </g>
    </g>
    <g id="y.edge.4">
      <g text-rendering="geometricPrecision" stroke-miterlimit="1.45" shape-rendering="geometricPrecision" transform="matrix(1,0,0,1,-93,-30)" stroke-linecap="butt">
        <path fill="none" d="M852.744 270.3227 L852.744 299.7766 L736.4736 299.7766"/>
        <path fill="white" d="M729.4736 299.7766 L736.4736 294.7766 L743.4736 299.7766 L736.4736 304.7766 Z" stroke="none"/>
        <path fill="none" d="M729.4736 299.7766 L736.4736 294.7766 L743.4736 299.7766 L736.4736 304.7766 Z"/>
      </g>
      <g>
        <g text-rendering="geometricPrecision" stroke-miterlimit="1.45" shape-rendering="geometricPrecision" font-family="sans-serif" transform="matrix(1,0,0,1,-93,-30)" stroke-linecap="butt">
          <text x="856.744" xml:space="preserve" y="294.3296" stroke="none">0..*</text>
        </g>
      </g>
    </g>
    <g id="y.edge.2">
      <g text-rendering="geometricPrecision" stroke-miterlimit="1.45" shape-rendering="geometricPrecision" transform="matrix(1,0,0,1,-93,-30)" stroke-linecap="butt">
        <path fill="none" d="M933 181.3292 L933 165.5937 L1017.0353 165.5937 L1017.0353 156.2985"/>
        <path fill="white" d="M1017.0353 141.2985 L1011.0353 157.2985 L1023.0353 157.2985 Z" stroke="none"/>
        <path fill="none" d="M1017.0353 141.2985 L1011.0353 157.2985 L1023.0353 157.2985 Z"/>
      </g>
      <g/>
    </g>
    <g id="y.edge.3">
      <g text-rendering="geometricPrecision" stroke-miterlimit="1.45" shape-rendering="geometricPrecision" transform="matrix(1,0,0,1,-93,-30)" stroke-linecap="butt">
        <path fill="none" d="M1130.5353 181.3292 L1130.5353 165.5937 L1069.6492 165.5937 L1069.6492 156.2985"/>
        <path fill="white" d="M1069.6492 141.2985 L1063.6492 157.2985 L1075.6492 157.2985 Z" stroke="none"/>
        <path fill="none" d="M1069.6492 141.2985 L1063.6492 157.2985 L1075.6492 157.2985 Z"/>
      </g>
      <g/>
    </g>
    <g id="y.edge.5">
      <g text-rendering="geometricPrecision" stroke-miterlimit="1.45" shape-rendering="geometricPrecision" transform="matrix(1,0,0,1,-93,-30)" stroke-linecap="butt">
        <path fill="none" d="M1053.9536 270.3604 L1053.9536 328.0248 L736.4992 328.0248"/>
        <path fill="white" d="M729.4992 328.0248 L736.4992 323.0248 L743.4992 328.0248 L736.4992 333.0248 Z" stroke="none"/>
        <path fill="none" d="M729.4992 328.0248 L736.4992 323.0248 L743.4992 328.0248 L736.4992 333.0248 Z"/>
      </g>
      <g>
        <g text-rendering="geometricPrecision" stroke-miterlimit="1.45" shape-rendering="geometricPrecision" font-family="sans-serif" transform="matrix(1,0,0,1,-93,-30)" stroke-linecap="butt">
          <text x="1057.9536" xml:space="preserve" y="294.5193" stroke="none">0..*</text>
        </g>
      </g>
    </g>
    <g id="y.edge.6">
      <g text-rendering="geometricPrecision" stroke-miterlimit="1.45" shape-rendering="geometricPrecision" transform="matrix(1,0,0,1,-93,-30)" stroke-linecap="butt">
        <path fill="none" d="M609 508.3531 L609 477.308"/>
        <path fill="white" d="M609 462.308 L603 478.308 L615 478.308 Z" stroke="none"/>
        <path fill="none" d="M609 462.308 L603 478.308 L615 478.308 Z"/>
      </g>
      <g/>
    </g>
    <g id="y.edge.7">
      <g text-rendering="geometricPrecision" stroke-miterlimit="1.45" shape-rendering="geometricPrecision" transform="matrix(1,0,0,1,-93,-30)" stroke-linecap="butt">
        <path fill="none" d="M719.5 508.3299 L719.5 488.3333 L640.7232 488.3333 L640.7232 477.362"/>
        <path fill="white" d="M640.7232 462.362 L634.7232 478.362 L646.7232 478.362 Z" stroke="none"/>
        <path fill="none" d="M640.7232 462.362 L634.7232 478.362 L646.7232 478.362 Z"/>
      </g>
      <g/>
    </g>
    <g id="y.edge.12">
      <g text-rendering="geometricPrecision" stroke-miterlimit="1.45" stroke-dasharray="6,2" shape-rendering="geometricPrecision" transform="matrix(1,0,0,1,-93,-30)" stroke-linecap="butt">
        <path fill="none" d="M936.2158 361.2962 L934.412 285.3086"/>
        <path fill="white" d="M934.056 270.3128 L928.4374 286.4507 L940.434 286.1659 Z" stroke="none"/>
        <path stroke-dasharray="none" fill="none" d="M934.056 270.3128 L928.4374 286.4507 L940.434 286.1659 Z"/>
      </g>
      <g/>
      <g/>
    </g>
    <g id="y.edge.9">
      <g text-rendering="geometricPrecision" stroke-miterlimit="1.45" shape-rendering="geometricPrecision" transform="matrix(1,0,0,1,-93,-30)" stroke-linecap="butt">
        <path fill="none" d="M908.6426 684.0386 L908.6426 669.0161"/>
        <path fill="white" d="M908.6426 654.0161 L902.6426 670.0161 L914.6426 670.0161 Z" stroke="none"/>
        <path fill="none" d="M908.6426 654.0161 L902.6426 670.0161 L914.6426 670.0161 Z"/>
      </g>
      <g/>
    </g>
    <g id="y.edge.10">
      <g text-rendering="geometricPrecision" stroke-miterlimit="1.45" shape-rendering="geometricPrecision" transform="matrix(1,0,0,1,-93,-30)" stroke-linecap="butt">
        <path fill="none" d="M908.6426 603.9813 L908.6426 597.018 L961.5334 597.018 L961.5334 585.9928"/>
        <path fill="white" d="M961.5334 570.9928 L955.5334 586.9928 L967.5334 586.9928 Z" stroke="none"/>
        <path fill="none" d="M961.5334 570.9928 L955.5334 586.9928 L967.5334 586.9928 Z"/>
      </g>
      <g/>
    </g>
    <g id="y.edge.11">
      <g text-rendering="geometricPrecision" stroke-miterlimit="1.45" stroke-dasharray="6,2" shape-rendering="geometricPrecision" transform="matrix(1,0,0,1,-93,-30)" stroke-linecap="butt">
        <path fill="none" d="M1130.5353 361.2962 L1130.5353 285.3128"/>
        <path fill="white" d="M1130.5353 270.3128 L1124.5353 286.3128 L1136.5353 286.3128 Z" stroke="none"/>
        <path stroke-dasharray="none" fill="none" d="M1130.5353 270.3128 L1124.5353 286.3128 L1136.5353 286.3128 Z"/>
      </g>
      <g/>
    </g>
    <g id="y.edge.13">
      <g text-rendering="geometricPrecision" stroke-miterlimit="1.45" shape-rendering="geometricPrecision" transform="matrix(1,0,0,1,-93,-30)" stroke-linecap="butt">
        <path fill="none" d="M1063.0353 683.9725 L1063.0353 597.018 L1006.837 597.018 L1006.837 585.9928"/>
        <path fill="white" d="M1006.837 570.9928 L1000.837 586.9928 L1012.837 586.9928 Z" stroke="none"/>
        <path fill="none" d="M1006.837 570.9928 L1000.837 586.9928 L1012.837 586.9928 Z"/>
      </g>
      <g/>
    </g>
    <g id="y.edge.15">
      <g stroke-linecap="butt" transform="matrix(1,0,0,1,-93,-30)" fill="silver" text-rendering="geometricPrecision" shape-rendering="geometricPrecision" stroke="silver" stroke-miterlimit="1.45">
        <path fill="none" d="M673.9889 633.8768 L498.5 579.3943 L498.5 549.3242"/>
        <path d="M498.5 541.3242 L493.5 553.3242 L498.5 550.3242 L503.5 553.3242 Z" stroke="none"/>
      </g>
    </g>
    <g id="y.edge.16">
      <g stroke-linecap="butt" transform="matrix(1,0,0,1,-93,-30)" fill="silver" text-rendering="geometricPrecision" shape-rendering="geometricPrecision" stroke="silver" stroke-miterlimit="1.45">
        <path fill="none" d="M690.4452 631.507 L609 585.2572 L609 549.326"/>
        <path d="M609 541.326 L604 553.326 L609 550.326 L614 553.326 Z" stroke="none"/>
      </g>
    </g>
    <g id="y.edge.17">
      <g stroke-linecap="butt" transform="matrix(1,0,0,1,-93,-30)" fill="silver" text-rendering="geometricPrecision" shape-rendering="geometricPrecision" stroke="silver" stroke-miterlimit="1.45">
        <path fill="none" d="M719.5 631.4969 L719.5 549.3173"/>
        <path d="M719.5 541.3173 L714.5 553.3173 L719.5 550.3173 L724.5 553.3173 Z" stroke="none"/>
      </g>
    </g>
    <g id="y.edge.18">
      <g stroke-linecap="butt" transform="matrix(1,0,0,1,-93,-30)" fill="silver" text-rendering="geometricPrecision" shape-rendering="geometricPrecision" stroke="silver" stroke-miterlimit="1.45">
        <path fill="none" d="M738.2981 631.4934 L809.1357 569.2677 L809.1357 462.138 L937 462.138 L937 435.3399"/>
        <path d="M937 427.3399 L932 439.3399 L937 436.3399 L942 439.3399 Z" stroke="none"/>
      </g>
    </g>
    <g id="y.edge.19">
      <g stroke-linecap="butt" transform="matrix(1,0,0,1,-93,-30)" fill="silver" text-rendering="geometricPrecision" shape-rendering="geometricPrecision" stroke="silver" stroke-miterlimit="1.45">
        <path fill="none" d="M737.9448 631.4977 L808.0698 568.7347 L810.2017 462.671 L1130.5353 462.671 L1130.5353 435.3324"/>
        <path d="M1130.5353 427.3324 L1125.5353 439.3324 L1130.5353 436.3324 L1135.5353 439.3324 Z" stroke="none"/>
      </g>
    </g>
    <g id="y.edge.20">
      <g text-rendering="geometricPrecision" stroke-miterlimit="1.45" stroke-dasharray="6,2" shape-rendering="geometricPrecision" transform="matrix(1,0,0,1,-93,-30)" stroke-linecap="butt">
        <path fill="none" d="M803.8036 60.8474 L803.8036 300.3298"/>
      </g>
      <g/>
    </g>
    <g visibility="hidden" id="tooltip.y.node.19" pointer-events="none">
      <g fill="rgb(255,255,225)" text-rendering="geometricPrecision" shape-rendering="geometricPrecision" font-family="'Segoe UI'" stroke="rgb(255,255,225)">
        <rect x="0" width="59" height="18" y="0" clip-path="url(#clipPath20)" stroke="none"/>
        <text fill="black" x="4" xml:space="preserve" y="14" clip-path="url(#clipPath20)" stroke="none">UMLNote</text>
      </g>
      <g font-family="'Segoe UI'" text-rendering="geometricPrecision" shape-rendering="geometricPrecision">
        <path d="M0 0 L59 0 L59 18 L0 18 L0 0 ZM1 1 L58 1 L58 17 L1 17 L1 1 Z" fill-rule="evenodd" clip-path="url(#clipPath20)" stroke="none"/>
      </g>
    </g>
  </g>
</svg>
